# Blender v3.3.0 OBJ File: 'ship.blend'
# www.blender.org
mtllib ship.mtl
o Cylinder
v 0.000000 -3.500000 -64.000000
v 0.000000 3.500000 -64.000000
v 2.048448 -3.500000 -62.770256
v 2.048448 3.500000 -62.770256
v 4.018176 -3.500000 -59.128288
v 4.018176 3.500000 -59.128288
v 5.833488 -3.500000 -53.214054
v 5.833488 3.500000 -53.214054
v 7.424621 -3.500000 -45.254833
v 7.424621 3.500000 -45.254833
v 8.730431 -3.500000 -35.556496
v 8.730431 3.500000 -35.556496
v 9.700735 -3.500000 -24.491741
v 9.700735 3.500000 -24.491741
v 10.298245 -3.500000 -12.485781
v 10.298245 3.500000 -12.485781
v 10.500000 -3.500000 0.000000
v 10.500000 3.500000 0.000000
v 10.298245 -3.500000 12.485781
v 10.298245 3.500000 12.485781
v 9.700735 -3.500000 24.491741
v 9.700735 3.500000 24.491741
v 8.730431 -3.500000 35.556496
v 8.730431 3.500000 35.556496
v 7.424621 -3.500000 45.254833
v 7.424621 3.500000 45.254833
v 5.833488 -3.500000 53.214054
v 5.833488 3.500000 53.214054
v 4.018176 -3.500000 59.128288
v 4.018176 3.500000 59.128288
v 2.048448 -3.500000 62.770256
v 2.048448 3.500000 62.770256
v 0.000000 -3.500000 64.000000
v 0.000000 3.500000 64.000000
v -2.048448 -3.500000 62.770256
v -2.048448 3.500000 62.770256
v -4.018176 -3.500000 59.128288
v -4.018176 3.500000 59.128288
v -5.833488 -3.500000 53.214054
v -5.833488 3.500000 53.214054
v -7.424621 -3.500000 45.254833
v -7.424621 3.500000 45.254833
v -8.730431 -3.500000 35.556496
v -8.730431 3.500000 35.556496
v -9.700735 -3.500000 24.491741
v -9.700735 3.500000 24.491741
v -10.298245 -3.500000 12.485781
v -10.298245 3.500000 12.485781
v -10.500000 -3.500000 0.000000
v -10.500000 3.500000 0.000000
v -10.298245 -3.500000 -12.485781
v -10.298245 3.500000 -12.485781
v -9.700735 -3.500000 -24.491741
v -9.700735 3.500000 -24.491741
v -8.730431 -3.500000 -35.556496
v -8.730431 3.500000 -35.556496
v -7.424621 -3.500000 -45.254833
v -7.424621 3.500000 -45.254833
v -5.833488 -3.500000 -53.214054
v -5.833488 3.500000 -53.214054
v -4.018176 -3.500000 -59.128288
v -4.018176 3.500000 -59.128288
v -2.048448 -3.500000 -62.770256
v -2.048448 3.500000 -62.770256
v 0.000000 3.362232 -25.000000
v 0.000000 7.576505 -25.000000
v 1.233244 3.362232 -24.519630
v 1.233244 7.576505 -24.519630
v 2.419095 3.362232 -23.096987
v 2.419095 7.576505 -23.096987
v 3.511982 3.362232 -20.786739
v 3.511982 7.576505 -20.786739
v 4.469904 3.362232 -17.677670
v 4.469904 7.576505 -17.677670
v 5.256052 3.362232 -13.889256
v 5.256052 7.576505 -13.889256
v 5.840212 3.362232 -9.567086
v 5.840212 7.576505 -9.567086
v 6.199936 3.362232 -4.877258
v 6.199936 7.576505 -4.877258
v 6.321400 3.362232 0.000000
v 6.321400 7.576505 0.000000
v 6.199936 3.362232 4.877258
v 6.199936 7.576505 4.877258
v 5.840212 3.362232 9.567086
v 5.840212 7.576505 9.567086
v 5.256052 3.362232 13.889256
v 5.256052 7.576505 13.889256
v 4.469904 3.362232 17.677670
v 4.469904 7.576505 17.677670
v 3.511982 3.362232 20.786739
v 3.511982 7.576505 20.786739
v 2.419095 3.362232 23.096987
v 2.419095 7.576505 23.096987
v 1.233244 3.362232 24.519630
v 1.233244 7.576505 24.519630
v 0.000000 3.362232 25.000000
v 0.000000 7.576505 25.000000
v -1.233244 3.362232 24.519630
v -1.233244 7.576505 24.519630
v -2.419095 3.362232 23.096987
v -2.419095 7.576505 23.096987
v -3.511982 3.362232 20.786739
v -3.511982 7.576505 20.786739
v -4.469904 3.362232 17.677670
v -4.469904 7.576505 17.677670
v -5.256052 3.362232 13.889256
v -5.256052 7.576505 13.889256
v -5.840212 3.362232 9.567086
v -5.840212 7.576505 9.567086
v -6.199936 3.362232 4.877258
v -6.199936 7.576505 4.877258
v -6.321400 3.362232 0.000000
v -6.321400 7.576505 0.000000
v -6.199936 3.362232 -4.877258
v -6.199936 7.576505 -4.877258
v -5.840212 3.362232 -9.567086
v -5.840212 7.576505 -9.567086
v -5.256052 3.362232 -13.889256
v -5.256052 7.576505 -13.889256
v -4.469904 3.362232 -17.677670
v -4.469904 7.576505 -17.677670
v -3.511982 3.362232 -20.786739
v -3.511982 7.576505 -20.786739
v -2.419095 3.362232 -23.096987
v -2.419095 7.576505 -23.096987
v -1.233244 3.362232 -24.519630
v -1.233244 7.576505 -24.519630
v -2.655907 6.390352 -12.647631
v -2.655907 11.702166 -12.647631
v -2.655907 6.390352 -17.959444
v -2.655907 11.702166 -17.959444
v 2.655907 6.390352 -12.647631
v 2.655907 11.702166 -12.647631
v 2.655907 6.390352 -17.959444
v 2.655907 11.702166 -17.959444
vt 1.000000 1.000000
vt 0.968750 0.500000
vt 1.000000 0.500000
vt 0.968750 1.000000
vt 0.937500 0.500000
vt 0.937500 1.000000
vt 0.906250 0.500000
vt 0.906250 1.000000
vt 0.875000 0.500000
vt 0.875000 1.000000
vt 0.843750 0.500000
vt 0.843750 1.000000
vt 0.812500 0.500000
vt 0.812500 1.000000
vt 0.781250 0.500000
vt 0.781250 1.000000
vt 0.750000 0.500000
vt 0.750000 1.000000
vt 0.718750 0.500000
vt 0.718750 1.000000
vt 0.687500 0.500000
vt 0.687500 1.000000
vt 0.656250 0.500000
vt 0.656250 1.000000
vt 0.625000 0.500000
vt 0.625000 1.000000
vt 0.593750 0.500000
vt 0.593750 1.000000
vt 0.562500 0.500000
vt 0.562500 1.000000
vt 0.531250 0.500000
vt 0.531250 1.000000
vt 0.500000 0.500000
vt 0.500000 1.000000
vt 0.468750 0.500000
vt 0.468750 1.000000
vt 0.437500 0.500000
vt 0.437500 1.000000
vt 0.406250 0.500000
vt 0.406250 1.000000
vt 0.375000 0.500000
vt 0.375000 1.000000
vt 0.343750 0.500000
vt 0.343750 1.000000
vt 0.312500 0.500000
vt 0.312500 1.000000
vt 0.281250 0.500000
vt 0.281250 1.000000
vt 0.250000 0.500000
vt 0.250000 1.000000
vt 0.218750 0.500000
vt 0.218750 1.000000
vt 0.187500 0.500000
vt 0.187500 1.000000
vt 0.156250 0.500000
vt 0.156250 1.000000
vt 0.125000 0.500000
vt 0.125000 1.000000
vt 0.093750 0.500000
vt 0.093750 1.000000
vt 0.062500 0.500000
vt 0.158156 0.028269
vt 0.471731 0.158156
vt 0.341844 0.471731
vt 0.062500 1.000000
vt 0.031250 0.500000
vt 0.031250 1.000000
vt 0.000000 0.500000
vt 0.796822 0.014612
vt 0.514612 0.203178
vt 0.703178 0.485388
vt 1.000000 1.000000
vt 0.968750 0.500000
vt 1.000000 0.500000
vt 0.968750 1.000000
vt 0.937500 0.500000
vt 0.937500 1.000000
vt 0.906250 0.500000
vt 0.906250 1.000000
vt 0.875000 0.500000
vt 0.875000 1.000000
vt 0.843750 0.500000
vt 0.843750 1.000000
vt 0.812500 0.500000
vt 0.812500 1.000000
vt 0.781250 0.500000
vt 0.781250 1.000000
vt 0.750000 0.500000
vt 0.750000 1.000000
vt 0.718750 0.500000
vt 0.718750 1.000000
vt 0.687500 0.500000
vt 0.687500 1.000000
vt 0.656250 0.500000
vt 0.656250 1.000000
vt 0.625000 0.500000
vt 0.625000 1.000000
vt 0.593750 0.500000
vt 0.593750 1.000000
vt 0.562500 0.500000
vt 0.562500 1.000000
vt 0.531250 0.500000
vt 0.531250 1.000000
vt 0.500000 0.500000
vt 0.500000 1.000000
vt 0.468750 0.500000
vt 0.468750 1.000000
vt 0.437500 0.500000
vt 0.437500 1.000000
vt 0.406250 0.500000
vt 0.406250 1.000000
vt 0.375000 0.500000
vt 0.375000 1.000000
vt 0.343750 0.500000
vt 0.343750 1.000000
vt 0.312500 0.500000
vt 0.312500 1.000000
vt 0.281250 0.500000
vt 0.281250 1.000000
vt 0.250000 0.500000
vt 0.250000 1.000000
vt 0.218750 0.500000
vt 0.218750 1.000000
vt 0.187500 0.500000
vt 0.187500 1.000000
vt 0.156250 0.500000
vt 0.156250 1.000000
vt 0.125000 0.500000
vt 0.125000 1.000000
vt 0.093750 0.500000
vt 0.093750 1.000000
vt 0.062500 0.500000
vt 0.419706 0.419706
vt 0.383337 0.449553
vt 0.419706 0.080294
vt 0.062500 1.000000
vt 0.031250 0.500000
vt 0.031250 1.000000
vt 0.000000 0.500000
vt 0.616663 0.449553
vt 0.658156 0.471731
vt 0.616663 0.050447
vt 0.625000 0.000000
vt 0.375000 0.250000
vt 0.375000 0.000000
vt 0.625000 0.250000
vt 0.375000 0.500000
vt 0.625000 0.500000
vt 0.375000 0.750000
vt 0.625000 0.750000
vt 0.375000 1.000000
vt 0.125000 0.750000
vt 0.125000 0.500000
vt 0.875000 0.500000
vt 0.296822 0.485388
vt 0.250000 0.490000
vt 0.203178 0.485388
vt 0.158156 0.471731
vt 0.116663 0.449553
vt 0.080294 0.419706
vt 0.050447 0.383337
vt 0.028269 0.341844
vt 0.014612 0.296822
vt 0.010000 0.250000
vt 0.014612 0.203178
vt 0.028269 0.158156
vt 0.050447 0.116663
vt 0.080294 0.080294
vt 0.116663 0.050447
vt 0.203178 0.014612
vt 0.341844 0.028269
vt 0.250000 0.010000
vt 0.296822 0.014612
vt 0.383337 0.050447
vt 0.419706 0.080294
vt 0.449553 0.116663
vt 0.485388 0.203178
vt 0.471731 0.341844
vt 0.490000 0.250000
vt 0.485388 0.296822
vt 0.449553 0.383337
vt 0.419706 0.419706
vt 0.383337 0.449553
vt 0.000000 1.000000
vt 0.750000 0.490000
vt 0.796822 0.485388
vt 0.841844 0.471731
vt 0.883337 0.449553
vt 0.919706 0.419706
vt 0.949553 0.383337
vt 0.971731 0.341844
vt 0.985388 0.296822
vt 0.990000 0.250000
vt 0.985388 0.203178
vt 0.971731 0.158156
vt 0.949553 0.116663
vt 0.919706 0.080294
vt 0.883337 0.050447
vt 0.841844 0.028269
vt 0.750000 0.010000
vt 0.703178 0.014612
vt 0.658156 0.028269
vt 0.616663 0.050447
vt 0.580294 0.080294
vt 0.550447 0.116663
vt 0.528269 0.158156
vt 0.510000 0.250000
vt 0.514612 0.296822
vt 0.528269 0.341844
vt 0.550447 0.383337
vt 0.580294 0.419706
vt 0.616663 0.449553
vt 0.658156 0.471731
vt 0.341844 0.471731
vt 0.296822 0.485388
vt 0.296822 0.014612
vt 0.250000 0.490000
vt 0.250000 0.010000
vt 0.203178 0.485388
vt 0.203178 0.014612
vt 0.158156 0.471731
vt 0.158156 0.028269
vt 0.116663 0.449553
vt 0.080294 0.419706
vt 0.116663 0.050447
vt 0.050447 0.383337
vt 0.080294 0.080294
vt 0.028269 0.341844
vt 0.050447 0.116663
vt 0.014612 0.296822
vt 0.028269 0.158156
vt 0.010000 0.250000
vt 0.014612 0.203178
vt 0.341844 0.028269
vt 0.383337 0.050447
vt 0.449553 0.116663
vt 0.471731 0.158156
vt 0.449553 0.383337
vt 0.485388 0.203178
vt 0.485388 0.296822
vt 0.490000 0.250000
vt 0.471731 0.341844
vt 0.000000 1.000000
vt 0.703178 0.485388
vt 0.750000 0.490000
vt 0.750000 0.010000
vt 0.796822 0.485388
vt 0.796822 0.014612
vt 0.841844 0.471731
vt 0.883337 0.449553
vt 0.841844 0.028269
vt 0.919706 0.419706
vt 0.919706 0.080294
vt 0.949553 0.383337
vt 0.949553 0.116663
vt 0.971731 0.341844
vt 0.985388 0.296822
vt 0.971731 0.158156
vt 0.990000 0.250000
vt 0.985388 0.203178
vt 0.883337 0.050447
vt 0.703178 0.014612
vt 0.658156 0.028269
vt 0.580294 0.080294
vt 0.580294 0.419706
vt 0.550447 0.116663
vt 0.550447 0.383337
vt 0.528269 0.158156
vt 0.514612 0.203178
vt 0.528269 0.341844
vt 0.510000 0.250000
vt 0.514612 0.296822
vt 0.625000 1.000000
vt 0.875000 0.750000
vn 0.5147 0.0000 -0.8574
vn 0.8796 0.0000 -0.4757
vn 0.9560 0.0000 -0.2934
vn 0.9806 0.0000 -0.1960
vn 0.9911 0.0000 -0.1334
vn 0.9962 0.0000 -0.0874
vn 0.9988 0.0000 -0.0497
vn 0.9999 0.0000 -0.0162
vn 0.9999 0.0000 0.0162
vn 0.9988 0.0000 0.0497
vn 0.9962 0.0000 0.0874
vn 0.9911 0.0000 0.1334
vn 0.9806 0.0000 0.1960
vn 0.9560 0.0000 0.2934
vn 0.8796 0.0000 0.4757
vn 0.5147 0.0000 0.8574
vn -0.5147 0.0000 0.8574
vn -0.8796 0.0000 0.4757
vn -0.9560 0.0000 0.2934
vn -0.9806 0.0000 0.1960
vn -0.9911 0.0000 0.1334
vn -0.9962 0.0000 0.0874
vn -0.9988 0.0000 0.0497
vn -0.9999 0.0000 0.0162
vn -0.9999 0.0000 -0.0162
vn -0.9988 0.0000 -0.0497
vn -0.9962 0.0000 -0.0874
vn -0.9911 0.0000 -0.1334
vn -0.9806 0.0000 -0.1960
vn -0.9560 0.0000 -0.2934
vn 0.0000 1.0000 -0.0000
vn -0.8796 0.0000 -0.4757
vn -0.5147 0.0000 -0.8574
vn 0.0000 -1.0000 -0.0000
vn 0.3630 0.0000 -0.9318
vn 0.7681 0.0000 -0.6403
vn 0.9040 0.0000 -0.4276
vn 0.9557 0.0000 -0.2944
vn 0.9791 0.0000 -0.2032
vn 0.9910 0.0000 -0.1339
vn 0.9971 0.0000 -0.0765
vn 0.9997 0.0000 -0.0249
vn 0.9997 0.0000 0.0249
vn 0.9971 0.0000 0.0765
vn 0.9910 0.0000 0.1339
vn 0.9791 0.0000 0.2032
vn 0.9557 0.0000 0.2944
vn 0.9040 0.0000 0.4276
vn 0.7681 0.0000 0.6403
vn 0.3630 0.0000 0.9318
vn -0.3630 0.0000 0.9318
vn -0.7681 0.0000 0.6403
vn -0.9040 0.0000 0.4276
vn -0.9557 0.0000 0.2944
vn -0.9791 0.0000 0.2032
vn -0.9910 0.0000 0.1339
vn -0.9971 0.0000 0.0765
vn -0.9997 0.0000 0.0249
vn -0.9997 0.0000 -0.0249
vn -0.9971 0.0000 -0.0765
vn -0.9910 0.0000 -0.1339
vn -0.9791 0.0000 -0.2032
vn -0.9557 0.0000 -0.2944
vn -0.9040 0.0000 -0.4276
vn -0.7681 0.0000 -0.6403
vn -0.3630 0.0000 -0.9318
vn -1.0000 0.0000 0.0000
vn 0.0000 0.0000 -1.0000
vn 1.0000 0.0000 0.0000
vn 0.0000 0.0000 1.0000
usemtl None
s off
f 2/1/1 3/2/1 1/3/1
f 4/4/2 5/5/2 3/2/2
f 6/6/3 7/7/3 5/5/3
f 8/8/4 9/9/4 7/7/4
f 10/10/5 11/11/5 9/9/5
f 12/12/6 13/13/6 11/11/6
f 14/14/7 15/15/7 13/13/7
f 16/16/8 17/17/8 15/15/8
f 18/18/9 19/19/9 17/17/9
f 20/20/10 21/21/10 19/19/10
f 22/22/11 23/23/11 21/21/11
f 24/24/12 25/25/12 23/23/12
f 26/26/13 27/27/13 25/25/13
f 28/28/14 29/29/14 27/27/14
f 30/30/15 31/31/15 29/29/15
f 32/32/16 33/33/16 31/31/16
f 34/34/17 35/35/17 33/33/17
f 36/36/18 37/37/18 35/35/18
f 38/38/19 39/39/19 37/37/19
f 40/40/20 41/41/20 39/39/20
f 42/42/21 43/43/21 41/41/21
f 44/44/22 45/45/22 43/43/22
f 46/46/23 47/47/23 45/45/23
f 48/48/24 49/49/24 47/47/24
f 50/50/25 51/51/25 49/49/25
f 52/52/26 53/53/26 51/51/26
f 54/54/27 55/55/27 53/53/27
f 56/56/28 57/57/28 55/55/28
f 58/58/29 59/59/29 57/57/29
f 60/60/30 61/61/30 59/59/30
f 38/62/31 22/63/31 6/64/31
f 62/65/32 63/66/32 61/61/32
f 64/67/33 1/68/33 63/66/33
f 31/69/34 47/70/34 63/71/34
f 66/72/35 67/73/35 65/74/35
f 68/75/36 69/76/36 67/73/36
f 70/77/37 71/78/37 69/76/37
f 72/79/38 73/80/38 71/78/38
f 74/81/39 75/82/39 73/80/39
f 76/83/40 77/84/40 75/82/40
f 78/85/41 79/86/41 77/84/41
f 80/87/42 81/88/42 79/86/42
f 82/89/43 83/90/43 81/88/43
f 84/91/44 85/92/44 83/90/44
f 86/93/45 87/94/45 85/92/45
f 88/95/46 89/96/46 87/94/46
f 90/97/47 91/98/47 89/96/47
f 92/99/48 93/100/48 91/98/48
f 94/101/49 95/102/49 93/100/49
f 96/103/50 97/104/50 95/102/50
f 98/105/51 99/106/51 97/104/51
f 100/107/52 101/108/52 99/106/52
f 102/109/53 103/110/53 101/108/53
f 104/111/54 105/112/54 103/110/54
f 106/113/55 107/114/55 105/112/55
f 108/115/56 109/116/56 107/114/56
f 110/117/57 111/118/57 109/116/57
f 112/119/58 113/120/58 111/118/58
f 114/121/59 115/122/59 113/120/59
f 116/123/60 117/124/60 115/122/60
f 118/125/61 119/126/61 117/124/61
f 120/127/62 121/128/62 119/126/62
f 122/129/63 123/130/63 121/128/63
f 124/131/64 125/132/64 123/130/64
f 74/133/31 72/134/31 90/135/31
f 126/136/65 127/137/65 125/132/65
f 128/138/66 65/139/66 127/137/66
f 123/140/34 125/141/34 103/142/34
f 130/143/67 131/144/67 129/145/67
f 132/146/68 135/147/68 131/144/68
f 136/148/69 133/149/69 135/147/69
f 134/150/70 129/151/70 133/149/70
f 135/147/34 129/152/34 131/153/34
f 132/154/31 134/150/31 136/148/31
f 2/1/1 4/4/1 3/2/1
f 4/4/2 6/6/2 5/5/2
f 6/6/3 8/8/3 7/7/3
f 8/8/4 10/10/4 9/9/4
f 10/10/5 12/12/5 11/11/5
f 12/12/6 14/14/6 13/13/6
f 14/14/7 16/16/7 15/15/7
f 16/16/8 18/18/8 17/17/8
f 18/18/9 20/20/9 19/19/9
f 20/20/10 22/22/10 21/21/10
f 22/22/11 24/24/11 23/23/11
f 24/24/12 26/26/12 25/25/12
f 26/26/13 28/28/13 27/27/13
f 28/28/14 30/30/14 29/29/14
f 30/30/15 32/32/15 31/31/15
f 32/32/16 34/34/16 33/33/16
f 34/34/17 36/36/17 35/35/17
f 36/36/18 38/38/18 37/37/18
f 38/38/19 40/40/19 39/39/19
f 40/40/20 42/42/20 41/41/20
f 42/42/21 44/44/21 43/43/21
f 44/44/22 46/46/22 45/45/22
f 46/46/23 48/48/23 47/47/23
f 48/48/24 50/50/24 49/49/24
f 50/50/25 52/52/25 51/51/25
f 52/52/26 54/54/26 53/53/26
f 54/54/27 56/56/27 55/55/27
f 56/56/28 58/58/28 57/57/28
f 58/58/29 60/60/29 59/59/29
f 60/60/30 62/65/30 61/61/30
f 6/64/31 4/155/31 2/156/31
f 2/156/31 64/157/31 6/64/31
f 64/157/31 62/158/31 6/64/31
f 62/158/31 60/159/31 58/160/31
f 58/160/31 56/161/31 54/162/31
f 54/162/31 52/163/31 50/164/31
f 50/164/31 48/165/31 54/162/31
f 48/165/31 46/166/31 54/162/31
f 46/166/31 44/167/31 42/168/31
f 42/168/31 40/169/31 38/62/31
f 38/62/31 36/170/31 30/171/31
f 36/170/31 34/172/31 30/171/31
f 34/172/31 32/173/31 30/171/31
f 30/171/31 28/174/31 26/175/31
f 26/175/31 24/176/31 22/63/31
f 22/63/31 20/177/31 14/178/31
f 20/177/31 18/179/31 14/178/31
f 18/179/31 16/180/31 14/178/31
f 14/178/31 12/181/31 10/182/31
f 10/182/31 8/183/31 6/64/31
f 62/158/31 58/160/31 6/64/31
f 58/160/31 54/162/31 6/64/31
f 46/166/31 42/168/31 54/162/31
f 42/168/31 38/62/31 54/162/31
f 30/171/31 26/175/31 38/62/31
f 26/175/31 22/63/31 38/62/31
f 14/178/31 10/182/31 22/63/31
f 10/182/31 6/64/31 22/63/31
f 6/64/31 54/162/31 38/62/31
f 62/65/32 64/67/32 63/66/32
f 64/67/33 2/184/33 1/68/33
f 63/71/34 1/185/34 3/186/34
f 3/186/34 5/187/34 7/188/34
f 7/188/34 9/189/34 11/190/34
f 11/190/34 13/191/34 15/192/34
f 15/192/34 17/193/34 19/194/34
f 19/194/34 21/195/34 23/196/34
f 23/196/34 25/197/34 27/198/34
f 27/198/34 29/199/34 31/69/34
f 31/69/34 33/200/34 35/201/34
f 35/201/34 37/202/34 39/203/34
f 39/203/34 41/204/34 43/205/34
f 43/205/34 45/206/34 47/70/34
f 47/70/34 49/207/34 51/208/34
f 51/208/34 53/209/34 55/210/34
f 55/210/34 57/211/34 59/212/34
f 59/212/34 61/213/34 63/71/34
f 63/71/34 3/186/34 15/192/34
f 3/186/34 7/188/34 15/192/34
f 7/188/34 11/190/34 15/192/34
f 15/192/34 19/194/34 31/69/34
f 19/194/34 23/196/34 31/69/34
f 23/196/34 27/198/34 31/69/34
f 31/69/34 35/201/34 47/70/34
f 35/201/34 39/203/34 47/70/34
f 39/203/34 43/205/34 47/70/34
f 47/70/34 51/208/34 63/71/34
f 51/208/34 55/210/34 63/71/34
f 55/210/34 59/212/34 63/71/34
f 63/71/34 15/192/34 31/69/34
f 66/72/35 68/75/35 67/73/35
f 68/75/36 70/77/36 69/76/36
f 70/77/37 72/79/37 71/78/37
f 72/79/38 74/81/38 73/80/38
f 74/81/39 76/83/39 75/82/39
f 76/83/40 78/85/40 77/84/40
f 78/85/41 80/87/41 79/86/41
f 80/87/42 82/89/42 81/88/42
f 82/89/43 84/91/43 83/90/43
f 84/91/44 86/93/44 85/92/44
f 86/93/45 88/95/45 87/94/45
f 88/95/46 90/97/46 89/96/46
f 90/97/47 92/99/47 91/98/47
f 92/99/48 94/101/48 93/100/48
f 94/101/49 96/103/49 95/102/49
f 96/103/50 98/105/50 97/104/50
f 98/105/51 100/107/51 99/106/51
f 100/107/52 102/109/52 101/108/52
f 102/109/53 104/111/53 103/110/53
f 104/111/54 106/113/54 105/112/54
f 106/113/55 108/115/55 107/114/55
f 108/115/56 110/117/56 109/116/56
f 110/117/57 112/119/57 111/118/57
f 112/119/58 114/121/58 113/120/58
f 114/121/59 116/123/59 115/122/59
f 116/123/60 118/125/60 117/124/60
f 118/125/61 120/127/61 119/126/61
f 120/127/62 122/129/62 121/128/62
f 122/129/63 124/131/63 123/130/63
f 124/131/64 126/136/64 125/132/64
f 70/214/31 68/215/31 96/216/31
f 68/215/31 66/217/31 98/218/31
f 66/217/31 128/219/31 100/220/31
f 128/219/31 126/221/31 102/222/31
f 126/221/31 124/223/31 102/222/31
f 124/223/31 122/224/31 104/225/31
f 102/222/31 124/223/31 104/225/31
f 122/224/31 120/226/31 106/227/31
f 120/226/31 118/228/31 108/229/31
f 106/227/31 120/226/31 108/229/31
f 118/228/31 116/230/31 110/231/31
f 116/230/31 114/232/31 112/233/31
f 110/231/31 116/230/31 112/233/31
f 110/231/31 108/229/31 118/228/31
f 106/227/31 104/225/31 122/224/31
f 102/222/31 100/220/31 128/219/31
f 100/220/31 98/218/31 66/217/31
f 98/218/31 96/216/31 68/215/31
f 96/216/31 94/234/31 70/214/31
f 94/234/31 92/235/31 70/214/31
f 92/235/31 90/135/31 72/134/31
f 70/214/31 92/235/31 72/134/31
f 90/135/31 88/236/31 74/133/31
f 88/236/31 86/237/31 76/238/31
f 74/133/31 88/236/31 76/238/31
f 86/237/31 84/239/31 80/240/31
f 84/239/31 82/241/31 80/240/31
f 80/240/31 78/242/31 86/237/31
f 78/242/31 76/238/31 86/237/31
f 126/136/65 128/138/65 127/137/65
f 128/138/66 66/243/66 65/139/66
f 127/244/34 65/245/34 97/246/34
f 65/245/34 67/247/34 95/248/34
f 67/247/34 69/249/34 95/248/34
f 69/249/34 71/250/34 93/251/34
f 95/248/34 69/249/34 93/251/34
f 71/250/34 73/252/34 89/253/34
f 73/252/34 75/254/34 87/255/34
f 75/254/34 77/256/34 87/255/34
f 77/256/34 79/257/34 85/258/34
f 87/255/34 77/256/34 85/258/34
f 79/257/34 81/259/34 83/260/34
f 83/260/34 85/258/34 79/257/34
f 87/255/34 89/253/34 73/252/34
f 89/253/34 91/261/34 71/250/34
f 91/261/34 93/251/34 71/250/34
f 95/248/34 97/246/34 65/245/34
f 97/246/34 99/262/34 127/244/34
f 99/262/34 101/263/34 127/244/34
f 101/263/34 103/142/34 125/141/34
f 127/244/34 101/263/34 125/141/34
f 103/142/34 105/264/34 121/265/34
f 105/264/34 107/266/34 119/267/34
f 107/266/34 109/268/34 119/267/34
f 109/268/34 111/269/34 117/270/34
f 119/267/34 109/268/34 117/270/34
f 111/269/34 113/271/34 115/272/34
f 115/272/34 117/270/34 111/269/34
f 119/267/34 121/265/34 105/264/34
f 121/265/34 123/140/34 103/142/34
f 130/143/67 132/146/67 131/144/67
f 132/146/68 136/148/68 135/147/68
f 136/148/69 134/150/69 133/149/69
f 134/150/70 130/273/70 129/151/70
f 135/147/34 133/149/34 129/152/34
f 132/154/31 130/274/31 134/150/31
