# Blender v3.3.0 OBJ File: 'splash.blend'
# www.blender.org
mtllib splash.mtl
o Circle
v 0.000000 0.000000 -1.000000
v -0.707107 0.000000 -0.707107
v -1.000000 0.000000 0.000000
v -0.707107 0.000000 0.707107
v 0.000000 0.000000 1.000000
v 0.707107 0.000000 0.707107
v 1.000000 0.000000 0.000000
v 0.707107 0.000000 -0.707107
v 0.000000 0.764367 -2.097192
v -1.482939 0.764367 -1.482939
v -2.097192 0.764367 0.000000
v -1.482939 0.764367 1.482939
v 0.000000 0.764367 2.097192
v 1.482939 0.764367 1.482939
v 2.097192 0.764367 0.000000
v 1.482939 0.764367 -1.482939
v 0.000000 0.000000 -3.063478
v -2.166206 0.000000 -2.166206
v -3.063478 0.000000 0.000000
v -2.166206 0.000000 2.166206
v 0.000000 0.000000 3.063478
v 2.166206 0.000000 2.166206
v 3.063478 0.000000 0.000000
v 2.166206 0.000000 -2.166206
vt 0.000000 0.000000
vt 0.000000 0.000000
vt 0.000000 0.000000
vt 0.000000 0.000000
vt 0.000000 0.000000
vt 0.000000 0.000000
vt 0.000000 0.000000
vt 0.000000 0.000000
vt 0.000000 0.000000
vt 0.000000 0.000000
vt 0.000000 0.000000
vt 0.000000 0.000000
vt 0.000000 0.000000
vt 0.000000 0.000000
vt 0.000000 0.000000
vt 0.000000 0.000000
vt 0.000000 0.000000
vt 0.000000 0.000000
vt 0.000000 0.000000
vt 0.000000 0.000000
vt 0.000000 0.000000
vt 0.000000 0.000000
vt 0.000000 0.000000
vt 0.000000 0.000000
vn 0.0000 1.0000 0.0000
vn -0.2304 0.7984 -0.5562
vn 0.2304 0.7984 -0.5562
vn 0.5562 0.7984 -0.2304
vn 0.5562 0.7984 0.2304
vn 0.2304 0.7984 0.5562
vn -0.2304 0.7984 0.5562
vn -0.5562 0.7984 0.2304
vn -0.5562 0.7984 -0.2304
vn -0.2489 0.7596 0.6009
vn 0.2489 0.7596 0.6009
vn 0.6009 0.7596 0.2489
vn 0.6009 0.7596 -0.2489
vn 0.2489 0.7596 -0.6009
vn -0.2489 0.7596 -0.6009
vn -0.6009 0.7596 -0.2489
vn -0.6009 0.7596 0.2489
usemtl None
s off
f 5/1/1 7/2/1 1/3/1
f 5/1/2 14/4/2 6/5/2
f 12/6/3 5/1/3 4/7/3
f 3/8/4 12/6/4 4/7/4
f 10/9/5 3/8/5 2/10/5
f 1/3/6 10/9/6 2/10/6
f 16/11/7 1/3/7 8/12/7
f 7/2/8 16/11/8 8/12/8
f 14/4/9 7/2/9 6/5/9
f 12/6/10 21/13/10 13/14/10
f 21/13/11 14/4/11 13/14/11
f 14/4/12 23/15/12 15/16/12
f 23/15/13 16/11/13 15/16/13
f 16/11/14 17/17/14 9/18/14
f 17/17/15 10/9/15 9/18/15
f 10/9/16 19/19/16 11/20/16
f 19/19/17 12/6/17 11/20/17
f 1/3/1 2/10/1 3/8/1
f 3/8/1 4/7/1 5/1/1
f 5/1/1 6/5/1 7/2/1
f 7/2/1 8/12/1 1/3/1
f 1/3/1 3/8/1 5/1/1
f 5/1/2 13/14/2 14/4/2
f 12/6/3 13/14/3 5/1/3
f 3/8/4 11/20/4 12/6/4
f 10/9/5 11/20/5 3/8/5
f 1/3/6 9/18/6 10/9/6
f 16/11/7 9/18/7 1/3/7
f 7/2/8 15/16/8 16/11/8
f 14/4/9 15/16/9 7/2/9
f 12/6/10 20/21/10 21/13/10
f 21/13/11 22/22/11 14/4/11
f 14/4/12 22/22/12 23/15/12
f 23/15/13 24/23/13 16/11/13
f 16/11/14 24/23/14 17/17/14
f 17/17/15 18/24/15 10/9/15
f 10/9/16 18/24/16 19/19/16
f 19/19/17 20/21/17 12/6/17
