# Blender v3.3.0 OBJ File: 'terrain2.blend'
# www.blender.org
mtllib terrain.mtl
o Plane
v 12500.000977 563.746216 12499.999023
v 12499.999023 563.746216 -12500.000977
v -12499.999023 260.334961 12500.000977
v -12500.000977 260.334961 -12499.999023
v -9374.999023 260.334961 12500.000000
v -6249.999512 0.000000 12500.000000
v -3124.999512 -816.094727 12500.000000
v 0.000546 -816.094727 12500.000000
v 3125.000488 0.000000 12500.000000
v 6250.000488 563.746216 12500.000000
v 9375.000977 563.746216 12500.000000
v 12500.000000 563.746216 9374.999023
v 12500.000000 563.746216 6249.999512
v 12500.000000 563.746216 3124.999512
v 12500.000000 563.746216 -0.000546
v 12500.000000 563.746216 -3125.000488
v 12500.000000 563.746216 -6250.000488
v 12500.000000 563.746216 -9375.000977
v 9374.999023 563.746216 -12500.000000
v 6249.999512 563.746216 -12500.000000
v 3124.999512 0.000000 -12500.000000
v -0.000546 -816.094727 -12500.000000
v -3125.000488 -816.094727 -12500.000000
v -6250.000488 0.000000 -12500.000000
v -9375.000977 260.334961 -12500.000000
v -12500.000000 260.334961 -9374.999023
v -12500.000000 260.334961 -6249.999512
v -12500.000000 260.334961 -3124.999512
v -12500.000000 260.334961 0.000546
v -12500.000000 260.334961 3125.000488
v -12500.000000 260.334961 6250.000488
v -12500.000000 260.334961 9375.000977
v 9375.000000 563.746216 9375.000000
v 6250.000488 563.746216 9375.000000
v 3125.000488 0.000000 9375.000000
v 0.000410 -816.094727 9375.000000
v -3124.999512 -816.094727 9375.000000
v -6249.999512 0.000000 9375.000000
v -9375.000000 260.334961 9375.000000
v 9375.000000 563.746216 6249.999512
v 6250.000488 563.746216 6249.999512
v 3125.000244 0.000000 6250.000000
v 0.000273 -816.094727 6250.000000
v -3124.999756 -816.094727 6250.000000
v -6249.999512 0.000000 6250.000488
v -9375.000000 260.334961 6250.000488
v 9375.000000 563.746216 3124.999512
v 6250.000000 563.746216 3124.999756
v 3125.000244 0.000000 3124.999756
v 0.000137 -816.094727 3125.000000
v -3124.999756 -816.094727 3125.000244
v -6250.000000 0.000000 3125.000244
v -9375.000000 260.334961 3125.000488
v 9375.000000 563.746216 -0.000410
v 6250.000000 563.746216 -0.000273
v 3125.000000 0.000000 -0.000137
v 0.000000 -816.094727 0.000000
v -3125.000000 -816.094727 0.000137
v -6250.000000 0.000000 0.000273
v -9375.000000 260.334961 0.000410
v 9375.000000 563.746216 -3125.000488
v 6250.000000 563.746216 -3125.000244
v 3124.999756 0.000000 -3125.000244
v -0.000137 -816.094727 -3125.000000
v -3125.000244 -816.094727 -3124.999756
v -6250.000000 0.000000 -3124.999756
v -9375.000000 260.334961 -3124.999512
v 9375.000000 563.746216 -6250.000488
v 6249.999512 563.746216 -6250.000488
v 3124.999756 0.000000 -6250.000000
v -0.000273 -816.094727 -6250.000000
v -3125.000244 -816.094727 -6250.000000
v -6250.000488 0.000000 -6249.999512
v -9375.000000 260.334961 -6249.999512
v 9375.000000 563.746216 -9375.000000
v 6249.999512 563.746216 -9375.000000
v 3124.999512 0.000000 -9375.000000
v -0.000410 -816.094727 -9375.000000
v -3125.000488 -816.094727 -9375.000000
v -6250.000488 0.000000 -9375.000000
v -9375.000000 260.334961 -9375.000000
vt 1.000000 0.875000
vt 0.875000 1.000000
vt 0.875000 0.875000
vt 0.125000 0.875000
vt 0.000000 1.000000
vt 0.000000 0.875000
vt 0.250000 0.875000
vt 0.125000 1.000000
vt 0.375000 0.875000
vt 0.250000 1.000000
vt 0.500000 0.875000
vt 0.375000 1.000000
vt 0.625000 0.875000
vt 0.500000 1.000000
vt 0.750000 0.875000
vt 0.625000 1.000000
vt 0.750000 1.000000
vt 0.125000 0.000000
vt 0.000000 0.125000
vt 0.000000 0.000000
vt 0.125000 0.125000
vt 0.000000 0.250000
vt 0.125000 0.250000
vt 0.000000 0.375000
vt 0.125000 0.375000
vt 0.000000 0.500000
vt 0.125000 0.500000
vt 0.000000 0.625000
vt 0.125000 0.625000
vt 0.000000 0.750000
vt 0.125000 0.750000
vt 0.250000 0.000000
vt 0.250000 0.125000
vt 0.250000 0.250000
vt 0.250000 0.375000
vt 0.250000 0.500000
vt 0.250000 0.625000
vt 0.250000 0.750000
vt 0.375000 0.000000
vt 0.375000 0.125000
vt 0.375000 0.250000
vt 0.375000 0.375000
vt 0.375000 0.500000
vt 0.375000 0.625000
vt 0.375000 0.750000
vt 0.500000 0.000000
vt 0.500000 0.125000
vt 0.500000 0.250000
vt 0.500000 0.375000
vt 0.500000 0.500000
vt 0.500000 0.625000
vt 0.500000 0.750000
vt 0.625000 0.000000
vt 0.625000 0.125000
vt 0.625000 0.250000
vt 0.625000 0.375000
vt 0.625000 0.500000
vt 0.625000 0.625000
vt 0.625000 0.750000
vt 0.750000 0.000000
vt 0.750000 0.125000
vt 0.750000 0.250000
vt 0.750000 0.375000
vt 0.750000 0.500000
vt 0.750000 0.625000
vt 0.750000 0.750000
vt 0.875000 0.000000
vt 0.875000 0.125000
vt 0.875000 0.250000
vt 0.875000 0.375000
vt 0.875000 0.500000
vt 0.875000 0.625000
vt 0.875000 0.750000
vt 1.000000 0.000000
vt 1.000000 0.125000
vt 1.000000 0.250000
vt 1.000000 0.375000
vt 1.000000 0.500000
vt 1.000000 0.625000
vt 1.000000 0.750000
vt 1.000000 1.000000
vn 0.0000 1.0000 0.0000
vn -0.1775 0.9841 0.0000
vn -0.2527 0.9676 0.0000
vn 0.2527 0.9676 0.0000
vn 0.0830 0.9965 0.0000
usemtl None
s off
f 25/1/1 26/2/1 81/3/1
f 39/4/1 3/5/1 5/6/1
f 46/7/1 32/8/1 39/4/1
f 53/9/1 31/10/1 46/7/1
f 60/11/1 30/12/1 53/9/1
f 67/13/1 29/14/1 60/11/1
f 74/15/1 28/16/1 67/13/1
f 81/3/1 27/17/1 74/15/1
f 12/18/1 11/19/1 1/20/1
f 33/21/1 10/22/1 11/19/1
f 34/23/2 9/24/2 10/22/2
f 35/25/3 8/26/3 9/24/3
f 36/27/1 7/28/1 8/26/1
f 37/29/4 6/30/4 7/28/4
f 38/31/5 5/6/5 6/30/5
f 13/32/1 33/21/1 12/18/1
f 40/33/1 34/23/1 33/21/1
f 41/34/2 35/25/2 34/23/2
f 42/35/3 36/27/3 35/25/3
f 43/36/1 37/29/1 36/27/1
f 44/37/4 38/31/4 37/29/4
f 45/38/5 39/4/5 38/31/5
f 14/39/1 40/33/1 13/32/1
f 47/40/1 41/34/1 40/33/1
f 48/41/2 42/35/2 41/34/2
f 49/42/3 43/36/3 42/35/3
f 50/43/1 44/37/1 43/36/1
f 51/44/4 45/38/4 44/37/4
f 52/45/5 46/7/5 45/38/5
f 15/46/1 47/40/1 14/39/1
f 54/47/1 48/41/1 47/40/1
f 55/48/2 49/42/2 48/41/2
f 56/49/3 50/43/3 49/42/3
f 57/50/1 51/44/1 50/43/1
f 58/51/4 52/45/4 51/44/4
f 59/52/5 53/9/5 52/45/5
f 16/53/1 54/47/1 15/46/1
f 61/54/1 55/48/1 54/47/1
f 62/55/2 56/49/2 55/48/2
f 63/56/3 57/50/3 56/49/3
f 64/57/1 58/51/1 57/50/1
f 65/58/4 59/52/4 58/51/4
f 66/59/5 60/11/5 59/52/5
f 17/60/1 61/54/1 16/53/1
f 68/61/1 62/55/1 61/54/1
f 69/62/2 63/56/2 62/55/2
f 70/63/3 64/57/3 63/56/3
f 71/64/1 65/58/1 64/57/1
f 72/65/4 66/59/4 65/58/4
f 73/66/5 67/13/5 66/59/5
f 18/67/1 68/61/1 17/60/1
f 75/68/1 69/62/1 68/61/1
f 76/69/2 70/63/2 69/62/2
f 77/70/3 71/64/3 70/63/3
f 78/71/1 72/65/1 71/64/1
f 79/72/4 73/66/4 72/65/4
f 80/73/5 74/15/5 73/66/5
f 2/74/1 75/68/1 18/67/1
f 19/75/1 76/69/1 75/68/1
f 20/76/2 77/70/2 76/69/2
f 21/77/3 78/71/3 77/70/3
f 22/78/1 79/72/1 78/71/1
f 23/79/4 80/73/4 79/72/4
f 24/80/5 81/3/5 80/73/5
f 25/1/1 4/81/1 26/2/1
f 39/4/1 32/8/1 3/5/1
f 46/7/1 31/10/1 32/8/1
f 53/9/1 30/12/1 31/10/1
f 60/11/1 29/14/1 30/12/1
f 67/13/1 28/16/1 29/14/1
f 74/15/1 27/17/1 28/16/1
f 81/3/1 26/2/1 27/17/1
f 12/18/1 33/21/1 11/19/1
f 33/21/1 34/23/1 10/22/1
f 34/23/2 35/25/2 9/24/2
f 35/25/3 36/27/3 8/26/3
f 36/27/1 37/29/1 7/28/1
f 37/29/4 38/31/4 6/30/4
f 38/31/5 39/4/5 5/6/5
f 13/32/1 40/33/1 33/21/1
f 40/33/1 41/34/1 34/23/1
f 41/34/2 42/35/2 35/25/2
f 42/35/3 43/36/3 36/27/3
f 43/36/1 44/37/1 37/29/1
f 44/37/4 45/38/4 38/31/4
f 45/38/5 46/7/5 39/4/5
f 14/39/1 47/40/1 40/33/1
f 47/40/1 48/41/1 41/34/1
f 48/41/2 49/42/2 42/35/2
f 49/42/3 50/43/3 43/36/3
f 50/43/1 51/44/1 44/37/1
f 51/44/4 52/45/4 45/38/4
f 52/45/5 53/9/5 46/7/5
f 15/46/1 54/47/1 47/40/1
f 54/47/1 55/48/1 48/41/1
f 55/48/2 56/49/2 49/42/2
f 56/49/3 57/50/3 50/43/3
f 57/50/1 58/51/1 51/44/1
f 58/51/4 59/52/4 52/45/4
f 59/52/5 60/11/5 53/9/5
f 16/53/1 61/54/1 54/47/1
f 61/54/1 62/55/1 55/48/1
f 62/55/2 63/56/2 56/49/2
f 63/56/3 64/57/3 57/50/3
f 64/57/1 65/58/1 58/51/1
f 65/58/4 66/59/4 59/52/4
f 66/59/5 67/13/5 60/11/5
f 17/60/1 68/61/1 61/54/1
f 68/61/1 69/62/1 62/55/1
f 69/62/2 70/63/2 63/56/2
f 70/63/3 71/64/3 64/57/3
f 71/64/1 72/65/1 65/58/1
f 72/65/4 73/66/4 66/59/4
f 73/66/5 74/15/5 67/13/5
f 18/67/1 75/68/1 68/61/1
f 75/68/1 76/69/1 69/62/1
f 76/69/2 77/70/2 70/63/2
f 77/70/3 78/71/3 71/64/3
f 78/71/1 79/72/1 72/65/1
f 79/72/4 80/73/4 73/66/4
f 80/73/5 81/3/5 74/15/5
f 2/74/1 19/75/1 75/68/1
f 19/75/1 20/76/1 76/69/1
f 20/76/2 21/77/2 77/70/2
f 21/77/3 22/78/3 78/71/3
f 22/78/1 23/79/1 79/72/1
f 23/79/4 24/80/4 80/73/4
f 24/80/5 25/1/5 81/3/5
